<svg xmlns="http://www.w3.org/2000/svg" width="26.824" height="17.936" viewBox="0 0 26.824 17.936">
  <path id="icon-bricks" d="M-1.32-17h-11.5a.546.546,0,0,0-.42.18.571.571,0,0,0-.168.4v7.33a.57.57,0,0,0,.168.42.571.571,0,0,0,.42.17h11.5a.573.573,0,0,0,.4-.17.546.546,0,0,0,.18-.42v-7.33a.547.547,0,0,0-.18-.4A.547.547,0,0,0-1.32-17Zm-.59,7.33H-12.236v-6.16H-1.91ZM12.824-17h-12a.516.516,0,0,0-.392.18.571.571,0,0,0-.168.4v7.33a.57.57,0,0,0,.168.42.539.539,0,0,0,.392.17h12a.571.571,0,0,0,.42-.17.57.57,0,0,0,.168-.42v-7.33a.571.571,0,0,0-.168-.4A.546.546,0,0,0,12.824-17Zm-.56,7.33H1.412v-6.16H12.264ZM-5.824-7.212h-7a.57.57,0,0,0-.42.168.57.57,0,0,0-.168.42v7a.537.537,0,0,0,.168.392.57.57,0,0,0,.42.168h7A.585.585,0,0,0-5.418.768.518.518,0,0,0-5.236.376v-7a.548.548,0,0,0-.182-.42A.585.585,0,0,0-5.824-7.212Zm-.588,7h-5.824V-6.064h5.824Zm9.912-7h-7a.585.585,0,0,0-.406.168.548.548,0,0,0-.182.42v7a.518.518,0,0,0,.182.392A.585.585,0,0,0-3.5.936h7A.57.57,0,0,0,3.92.768.537.537,0,0,0,4.088.376v-7a.57.57,0,0,0-.168-.42A.57.57,0,0,0,3.5-7.212Zm-.588,7H-2.912V-6.064H2.912Zm9.912-7h-7a.537.537,0,0,0-.392.168.57.57,0,0,0-.168.42v7a.537.537,0,0,0,.168.392.537.537,0,0,0,.392.168h7a.57.57,0,0,0,.42-.168.537.537,0,0,0,.168-.392v-7a.57.57,0,0,0-.168-.42A.57.57,0,0,0,12.824-7.212Zm-.56,7H6.412V-6.064h5.852Z" transform="translate(13.412 17)" fill="#fff"/>
</svg>
