<svg xmlns="http://www.w3.org/2000/svg" width="26" height="26.828" viewBox="0 0 26 26.828">
  <path id="icon-adjusted" d="M-6.057-18.888h-6.785a.544.544,0,0,0-.407.168.579.579,0,0,0-.163.42v7a.594.594,0,0,0,.163.406.524.524,0,0,0,.407.182h6.785a.537.537,0,0,0,.394-.182.57.57,0,0,0,.176-.406v-7a.556.556,0,0,0-.176-.42A.558.558,0,0,0-6.057-18.888Zm-.57,7h-5.645v-5.824h5.645Zm9.608-9H-3.8a.558.558,0,0,0-.394.168.556.556,0,0,0-.176.42V-8.624a.525.525,0,0,0,.176.392.558.558,0,0,0,.394.168H2.98a.544.544,0,0,0,.407-.168.546.546,0,0,0,.163-.392V-20.3a.579.579,0,0,0-.163-.42A.544.544,0,0,0,2.98-20.888ZM2.411-9.212H-3.235v-10.5H2.411Zm9.608-9.676H5.233a.513.513,0,0,0-.38.168.579.579,0,0,0-.163.42v7a.556.556,0,0,0,.163.41.526.526,0,0,0,.38.18h6.785a.554.554,0,0,0,.407-.18.556.556,0,0,0,.163-.41v-7a.579.579,0,0,0-.163-.42A.544.544,0,0,0,12.018-18.888Zm-.543,7H5.8v-5.822h5.672Zm-17.532,5h-6.785a.513.513,0,0,0-.407.17.628.628,0,0,0-.163.42V5.35a.579.579,0,0,0,.163.42.545.545,0,0,0,.407.17h6.785a.56.56,0,0,0,.394-.17.556.556,0,0,0,.176-.42V-6.3a.6.6,0,0,0-.176-.42A.524.524,0,0,0-6.057-6.89Zm-.57,11.68h-5.645V-5.71h5.645ZM2.98-4.888H-3.8A.558.558,0,0,0-4.2-4.72a.556.556,0,0,0-.176.42v7a.535.535,0,0,0,.176.41.572.572,0,0,0,.394.18H2.98a.585.585,0,0,0,.57-.59v-7a.579.579,0,0,0-.163-.42A.544.544,0,0,0,2.98-4.888Zm-.57,7H-3.235V-3.712H2.411Zm9.608-9H5.233a.515.515,0,0,0-.38.17.579.579,0,0,0-.163.42V5.35a.611.611,0,0,0,.163.42.515.515,0,0,0,.38.17h6.785a.545.545,0,0,0,.407-.17.611.611,0,0,0,.163-.42V-6.3a.579.579,0,0,0-.163-.42A.545.545,0,0,0,12.018-6.89ZM11.475,4.79H5.8V-5.71h5.672Z" transform="translate(13.412 20.888)" fill="#fff"/>
</svg>
